<svg width="60" height="60" viewBox="0 0 60 60" fill="none" xmlns="http://www.w3.org/2000/svg">
<path d="M17.5 17.5H15C13.6739 17.5 12.4021 18.0268 11.4645 18.9645C10.5268 19.9021 10 21.1739 10 22.5V45C10 46.3261 10.5268 47.5979 11.4645 48.5355C12.4021 49.4732 13.6739 50 15 50H37.5C38.8261 50 40.0979 49.4732 41.0355 48.5355C41.9732 47.5979 42.5 46.3261 42.5 45V42.5" stroke="#0F0F0F" stroke-width="5" stroke-linecap="round" stroke-linejoin="round"/>
<path d="M40 12.4998L47.5 19.9998M50.9625 16.4623C51.9471 15.4777 52.5003 14.1422 52.5003 12.7498C52.5003 11.3573 51.9471 10.0219 50.9625 9.03728C49.9779 8.05266 48.6425 7.49951 47.25 7.49951C45.8575 7.49951 44.5221 8.05266 43.5375 9.03728L22.5 29.9998V37.4998H30L50.9625 16.4623Z" stroke="#0F0F0F" stroke-width="5" stroke-linecap="round" stroke-linejoin="round"/>
</svg>
