<svg width="60" height="60" viewBox="0 0 60 60" fill="none" xmlns="http://www.w3.org/2000/svg">
<path d="M57.4219 25.9312C57.0739 25.4488 56.6161 25.056 56.0863 24.7854C55.5565 24.5148 54.9699 24.3741 54.375 24.375H50.625V20.625C50.625 19.6304 50.2299 18.6766 49.5266 17.9734C48.8234 17.2701 47.8696 16.875 46.875 16.875H30.6258L24.1266 12C23.4764 11.5153 22.6876 11.2523 21.8766 11.25H9.375C8.38044 11.25 7.42661 11.6451 6.72335 12.3483C6.02009 13.0516 5.625 14.0054 5.625 15V48.75C5.625 49.2473 5.82254 49.7242 6.17417 50.0758C6.52581 50.4275 7.00272 50.625 7.5 50.625H49.4766C49.8701 50.625 50.2537 50.5012 50.573 50.2711C50.8922 50.041 51.131 49.7163 51.2555 49.343L57.9328 29.3109C58.1206 28.7473 58.1722 28.1472 58.0834 27.5597C57.9946 26.9723 57.7679 26.4142 57.4219 25.9312ZM21.8766 15L28.875 20.25C29.1996 20.4934 29.5943 20.625 30 20.625H46.875V24.375H16.3523C15.5653 24.3749 14.7981 24.6225 14.1596 25.0827C13.521 25.5429 13.0434 26.1924 12.7945 26.9391L9.375 37.1953V15H21.8766ZM48.1266 46.875H10.1016L16.3523 28.125H54.375L48.1266 46.875Z" fill="#0F0F0F"/>
</svg>
